<svg width="421" height="60" viewBox="0 0 421 60" fill="none" xmlns="http://www.w3.org/2000/svg">
<rect width="92" height="16" rx="8" fill="#C4C4C4"/>
<rect y="22" width="72" height="16" rx="8" fill="#8F00C1"/>
<rect y="44" width="114" height="16" rx="8" fill="#C4C4C4"/>
<path d="M164.56 48L164.512 27.84L154.624 44.448H151.12L141.28 28.272V48H133.984V14.4H140.416L152.992 35.28L165.376 14.4H171.76L171.856 48H164.56ZM195.956 36.096V48H188.18V36L175.172 14.4H183.428L192.404 29.328L201.38 14.4H209.012L195.956 36.096ZM218.616 20.736H207.864V14.4H237.144V20.736H226.392V48H218.616V20.736ZM257.131 48.576C253.643 48.576 250.491 47.824 247.675 46.32C244.891 44.816 242.699 42.752 241.099 40.128C239.531 37.472 238.747 34.496 238.747 31.2C238.747 27.904 239.531 24.944 241.099 22.32C242.699 19.664 244.891 17.584 247.675 16.08C250.491 14.576 253.643 13.824 257.131 13.824C260.619 13.824 263.755 14.576 266.539 16.08C269.323 17.584 271.515 19.664 273.115 22.32C274.715 24.944 275.515 27.904 275.515 31.2C275.515 34.496 274.715 37.472 273.115 40.128C271.515 42.752 269.323 44.816 266.539 46.32C263.755 47.824 260.619 48.576 257.131 48.576ZM257.131 41.952C259.115 41.952 260.907 41.504 262.507 40.608C264.107 39.68 265.355 38.4 266.251 36.768C267.179 35.136 267.643 33.28 267.643 31.2C267.643 29.12 267.179 27.264 266.251 25.632C265.355 24 264.107 22.736 262.507 21.84C260.907 20.912 259.115 20.448 257.131 20.448C255.147 20.448 253.355 20.912 251.755 21.84C250.155 22.736 248.891 24 247.963 25.632C247.067 27.264 246.619 29.12 246.619 31.2C246.619 33.28 247.067 35.136 247.963 36.768C248.891 38.4 250.155 39.68 251.755 40.608C253.355 41.504 255.147 41.952 257.131 41.952ZM295.903 14.4C298.879 14.4 301.455 14.896 303.631 15.888C305.839 16.88 307.535 18.288 308.719 20.112C309.903 21.936 310.495 24.096 310.495 26.592C310.495 29.056 309.903 31.216 308.719 33.072C307.535 34.896 305.839 36.304 303.631 37.296C301.455 38.256 298.879 38.736 295.903 38.736H289.135V48H281.359V14.4H295.903ZM295.471 32.4C297.807 32.4 299.583 31.904 300.799 30.912C302.015 29.888 302.623 28.448 302.623 26.592C302.623 24.704 302.015 23.264 300.799 22.272C299.583 21.248 297.807 20.736 295.471 20.736H289.135V32.4H295.471ZM340.719 30.528C342.639 31.136 344.143 32.16 345.231 33.6C346.319 35.008 346.863 36.752 346.863 38.832C346.863 41.776 345.711 44.048 343.407 45.648C341.135 47.216 337.807 48 333.423 48H316.047V14.4H332.463C336.559 14.4 339.695 15.184 341.871 16.752C344.079 18.32 345.183 20.448 345.183 23.136C345.183 24.768 344.783 26.224 343.983 27.504C343.215 28.784 342.127 29.792 340.719 30.528ZM323.775 20.256V28.176H331.503C333.423 28.176 334.879 27.84 335.871 27.168C336.863 26.496 337.359 25.504 337.359 24.192C337.359 22.88 336.863 21.904 335.871 21.264C334.879 20.592 333.423 20.256 331.503 20.256H323.775ZM332.847 42.144C334.895 42.144 336.431 41.808 337.455 41.136C338.511 40.464 339.039 39.424 339.039 38.016C339.039 35.232 336.975 33.84 332.847 33.84H323.775V42.144H332.847ZM374.878 40.8H359.278L356.302 48H348.334L363.31 14.4H370.99L386.014 48H377.854L374.878 40.8ZM372.43 34.896L367.102 22.032L361.774 34.896H372.43ZM410.908 48L404.428 38.64H404.044H397.276V48H389.5V14.4H404.044C407.02 14.4 409.596 14.896 411.772 15.888C413.98 16.88 415.676 18.288 416.86 20.112C418.044 21.936 418.636 24.096 418.636 26.592C418.636 29.088 418.028 31.248 416.812 33.072C415.628 34.864 413.932 36.24 411.724 37.2L419.26 48H410.908ZM410.764 26.592C410.764 24.704 410.156 23.264 408.94 22.272C407.724 21.248 405.948 20.736 403.612 20.736H397.276V32.448H403.612C405.948 32.448 407.724 31.936 408.94 30.912C410.156 29.888 410.764 28.448 410.764 26.592Z" fill="#8F00C1"/>
</svg>
