<svg width="11" height="20" viewBox="0 0 11 20" fill="white" xmlns="http://www.w3.org/2000/svg">
<path d="M1.42792 19.9974C1.09487 19.9981 0.772105 19.8821 0.515656 19.6696C0.371321 19.5499 0.252012 19.403 0.16456 19.2371C0.0771084 19.0713 0.0232332 18.8898 0.00602011 18.7031C-0.011193 18.5164 0.00859463 18.3282 0.064249 18.1491C0.119903 17.9701 0.21033 17.8038 0.330353 17.6597L6.71619 10.0195L0.558419 2.36509C0.440016 2.21929 0.351596 2.05153 0.29824 1.87144C0.244884 1.69136 0.227646 1.5025 0.247515 1.31573C0.267384 1.12896 0.323968 0.947962 0.414017 0.783132C0.504066 0.618303 0.625803 0.472894 0.77223 0.355266C0.919712 0.225501 1.09242 0.127622 1.27953 0.0677701C1.46663 0.00791853 1.66408 -0.0126127 1.8595 0.00746409C2.05491 0.0275408 2.24407 0.0877926 2.41509 0.184438C2.58611 0.281083 2.73531 0.412036 2.85333 0.569077L9.73806 9.12154C9.94771 9.37659 10.0623 9.69652 10.0623 10.0267C10.0623 10.3568 9.94771 10.6768 9.73806 10.9318L2.61101 19.4843C2.46802 19.6568 2.28637 19.7931 2.08081 19.8823C1.87526 19.9714 1.65157 20.0109 1.42792 19.9974Z" />
</svg>
