<svg width="10" height="5" viewBox="0 0 10 5" fill="#00C4DF" xmlns="http://www.w3.org/2000/svg">
<path d="M-3.29965e-08 0.566155C0.100816 0.346725 0.347026 0.213847 0.572435 0.0747139C0.760269 -0.0413016 1.05286 -0.0154863 1.23789 0.105803C1.26447 0.123248 1.28947 0.142042 1.3148 0.160561C2.51607 1.03877 3.71739 1.91695 4.91816 2.79553C4.9432 2.81386 4.96148 2.83704 4.98744 2.86237C5.03076 2.83254 5.05911 2.81405 5.08587 2.79449C6.28727 1.91628 7.4885 1.03807 8.68973 0.159856C8.97192 -0.0464214 9.27974 -0.0469733 9.55971 0.158139C9.61024 0.195206 9.6591 0.233622 9.7119 0.268942C9.83754 0.352949 9.94796 0.444284 10 0.566155C10 0.618522 10 0.670888 10 0.723224C9.94959 0.845647 9.83536 0.934223 9.71491 1.02215C8.28697 2.06427 6.86016 3.10718 5.43499 4.15129C5.26322 4.27712 5.06716 4.33191 4.83391 4.27632C4.74798 4.25587 4.66281 4.21488 4.59835 4.16788C3.12327 3.0929 1.65021 2.0165 0.180957 0.937319C0.102116 0.879434 0.0595083 0.795212 -4.21525e-08 0.723254C-3.90987e-08 0.670857 -3.60467e-08 0.618491 -3.29965e-08 0.566155Z" />
</svg>
