<svg width="40" height="40" viewBox="0 0 40 40" fill="white" xmlns="http://www.w3.org/2000/svg">
<path d="M20 37.5C15.3587 37.5 10.9075 35.6563 7.62563 32.3744C4.34374 29.0925 2.5 24.6413 2.5 20C2.5 15.3587 4.34374 10.9075 7.62563 7.62563C10.9075 4.34374 15.3587 2.5 20 2.5C24.6413 2.5 29.0925 4.34374 32.3744 7.62563C35.6563 10.9075 37.5 15.3587 37.5 20C37.5 24.6413 35.6563 29.0925 32.3744 32.3744C29.0925 35.6563 24.6413 37.5 20 37.5ZM20 40C25.3043 40 30.3914 37.8929 34.1421 34.1421C37.8929 30.3914 40 25.3043 40 20C40 14.6957 37.8929 9.60859 34.1421 5.85786C30.3914 2.10714 25.3043 0 20 0C14.6957 0 9.60859 2.10714 5.85786 5.85786C2.10714 9.60859 0 14.6957 0 20C0 25.3043 2.10714 30.3914 5.85786 34.1421C9.60859 37.8929 14.6957 40 20 40Z" />
<path d="M11.6149 11.615C11.731 11.4986 11.869 11.4062 12.0208 11.3432C12.1727 11.2802 12.3355 11.2478 12.4999 11.2478C12.6643 11.2478 12.8271 11.2802 12.979 11.3432C13.1309 11.4062 13.2688 11.4986 13.3849 11.615L19.9999 18.2325L26.6149 11.615C26.7311 11.4988 26.8691 11.4066 27.021 11.3437C27.1728 11.2808 27.3356 11.2484 27.4999 11.2484C27.6643 11.2484 27.827 11.2808 27.9789 11.3437C28.1307 11.4066 28.2687 11.4988 28.3849 11.615C28.5011 11.7312 28.5933 11.8692 28.6562 12.021C28.7191 12.1729 28.7515 12.3356 28.7515 12.5C28.7515 12.6644 28.7191 12.8271 28.6562 12.979C28.5933 13.1308 28.5011 13.2688 28.3849 13.385L21.7674 20L28.3849 26.615C28.5011 26.7312 28.5933 26.8692 28.6562 27.021C28.7191 27.1729 28.7515 27.3356 28.7515 27.5C28.7515 27.6644 28.7191 27.8271 28.6562 27.979C28.5933 28.1308 28.5011 28.2688 28.3849 28.385C28.2687 28.5012 28.1307 28.5934 27.9789 28.6563C27.827 28.7192 27.6643 28.7516 27.4999 28.7516C27.3356 28.7516 27.1728 28.7192 27.021 28.6563C26.8691 28.5934 26.7311 28.5012 26.6149 28.385L19.9999 21.7675L13.3849 28.385C13.2687 28.5012 13.1307 28.5934 12.9789 28.6563C12.827 28.7192 12.6643 28.7516 12.4999 28.7516C12.3356 28.7516 12.1728 28.7192 12.021 28.6563C11.8691 28.5934 11.7311 28.5012 11.6149 28.385C11.4987 28.2688 11.4065 28.1308 11.3436 27.979C11.2807 27.8271 11.2483 27.6644 11.2483 27.5C11.2483 27.3356 11.2807 27.1729 11.3436 27.021C11.4065 26.8692 11.4987 26.7312 11.6149 26.615L18.2324 20L11.6149 13.385C11.4985 13.2689 11.4061 13.131 11.3431 12.9791C11.2801 12.8272 11.2477 12.6644 11.2477 12.5C11.2477 12.3356 11.2801 12.1728 11.3431 12.0209C11.4061 11.8691 11.4985 11.7311 11.6149 11.615Z" />
</svg>
